<?xml version="1.0" encoding="utf-8"?>
<!-- Generator: Adobe Illustrator 22.1.0, SVG Export Plug-In . SVG Version: 6.00 Build 0)  -->
<svg version="1.1" id="图层_1" xmlns="http://www.w3.org/2000/svg" xmlns:xlink="http://www.w3.org/1999/xlink" x="0px" y="0px"
	 viewBox="0 0 128 64" style="enable-background:new 0 0 128 64;" xml:space="preserve">
<style type="text/css">
	.st0{fill:#BFBFBF;}
</style>
<path class="st0" d="M110.3,35.4c0,0.5-0.2,1.1-0.5,1.6c-0.5,0.6-1.1,1-1.9,1.1s-1.6,0-2.2-0.5L63.8,9.2L22,37.6
	c-0.6,0.4-1.4,0.6-2.2,0.5c-0.8-0.1-1.4-0.5-1.9-1.1c-0.9-1.3-0.6-3,0.7-3.9L62.2,3.5c1-0.7,2.3-0.7,3.4,0l43.5,29.6
	C109.8,33.6,110.3,34.5,110.3,35.4z"/>
<path class="st0" d="M110.3,58.8c0,0.5-0.2,1.1-0.5,1.6c-0.5,0.6-1.1,1-1.9,1.1s-1.6-0.1-2.2-0.5L63.8,32.6L22,61
	c-0.6,0.4-1.4,0.6-2.2,0.5c-0.8-0.1-1.4-0.5-1.9-1.1c-0.9-1.3-0.6-3,0.7-3.9l43.5-29.5c1-0.7,2.3-0.7,3.4,0l43.5,29.6
	C109.8,57,110.3,57.9,110.3,58.8z"/>
</svg>
